<svg width="437" height="370" viewBox="0 0 437 370" fill="none" xmlns="http://www.w3.org/2000/svg" xmlns:xlink="http://www.w3.org/1999/xlink">

<g id="Strona g&#197;&#130;&#195;&#179;wna" clip-path="url(#clip0_0_1)">

<g id="Group 1">
<g id="Clip path group">
<mask id="mask0_0_1" style="mask-type:luminance" maskUnits="userSpaceOnUse" x="0" y="0" width="440" height="370">
<g id="65d0d83368">
<path id="Vector" d="M0 0H439.59V369.407H0V0Z" fill="white"/>
</g>
</mask>
<g mask="url(#mask0_0_1)">
<g id="Group">
<g id="Mask group">
<mask id="mask1_0_1" style="mask-type:luminance" maskUnits="userSpaceOnUse" x="-1" y="0" width="506" height="479">
<g id="Group_2">
<g id="Group_3">
<g id="Group_4">
<rect id="Rectangle" x="-0.249023" y="0.00195312" width="504.385" height="478.465" fill="url(#pattern0_0_1)"/>
</g>
</g>
</g>
</mask>
<g mask="url(#mask1_0_1)">
<g id="Group_5">
<g id="Group_6">
<rect id="Rectangle_2" x="-0.249023" y="0.00195312" width="504.385" height="478.465" fill="url(#pattern1_0_1)"/>
</g>
</g>
</g>
</g>
</g>
</g>
</g>
<g id="Clip path group_2">
<mask id="mask2_0_1" style="mask-type:luminance" maskUnits="userSpaceOnUse" x="59" y="152" width="60" height="218">
<g id="b689fbecc5">
<path id="Vector_2" d="M59.8081 152.597H118.121V369.407H59.8081V152.597Z" fill="white"/>
</g>
</mask>
<g mask="url(#mask2_0_1)">
<g id="Group_7">
<g id="Group_8">
<g id="Clip path group_3">
<mask id="mask3_0_1" style="mask-type:luminance" maskUnits="userSpaceOnUse" x="59" y="152" width="60" height="218">
<g id="229c221433">
<path id="Vector_3" d="M118.121 152.594H59.8081V369.604H118.121V152.594Z" fill="white"/>
</g>
</mask>
<g mask="url(#mask3_0_1)">
<g id="Group_9">
<g id="Group_10">
<g id="Group_11">
<g id="Group_12">
<path id="Vector_4" d="M90.4495 335.107C83.0202 335.107 76.8583 332.857 71.9697 328.347C67.0928 323.826 64.6572 318.042 64.6572 310.995C64.6572 303.964 67.0928 298.251 71.9697 293.863C76.8583 289.475 83.0202 287.281 90.4495 287.281C97.8788 287.281 104.029 289.475 108.906 293.863C113.795 298.251 116.242 303.964 116.242 310.995C116.242 318.042 113.795 323.826 108.906 328.347C104.029 332.857 97.8788 335.107 90.4495 335.107Z" fill="#131DFF"/>
</g>
</g>
</g>
</g>
</g>
</g>
</g>
</g>
</g>
</g>
</g>
</g>
<defs>
<pattern id="pattern0_0_1" patternContentUnits="objectBoundingBox" width="1" height="1">

</pattern>
<pattern id="pattern1_0_1" patternContentUnits="objectBoundingBox" width="1" height="1">

</pattern>
<clipPath id="clip0_0_1">
<rect width="1440" height="8564" fill="white" transform="translate(-1003.93 -444.892)"/>
</clipPath>


</defs>
</svg>
