<svg width="259" height="252" viewBox="0 0 259 252" fill="none" xmlns="http://www.w3.org/2000/svg">

<g id="Strona g&#197;&#130;&#195;&#179;wna" clip-path="url(#clip0_0_1)">

<g id="STAR_OUTLINE">
<mask id="mask0_0_1" style="mask-type:luminance" maskUnits="userSpaceOnUse" x="-7" y="0" width="266" height="252">
<g id="ee8a91fe55">
<path id="Vector" d="M178.749 0L258.808 175.418L73.8867 251.363L-6.17201 75.9446L178.749 0Z" fill="white"/>
</g>
</mask>
<g mask="url(#mask0_0_1)">
<g id="Group">
<path id="Vector_2" d="M31.4196 166.435C31.2861 166.142 31.4173 165.828 31.7089 165.665C72.6602 145.591 92.6899 134.326 99.5036 118.069C106.262 101.792 99.7827 80.5758 84.4023 39.3547C84.3074 39.0464 84.4385 38.7321 84.7469 38.6054C85.0166 38.4946 85.3865 38.6032 85.52 38.8957C106.72 77.7267 118.557 96.7429 135.732 103.191C152.853 109.618 175.218 103.471 218.673 88.8812C218.998 88.7912 219.329 88.9156 219.462 89.2081C219.579 89.464 219.465 89.8149 219.157 89.9415C178.222 110.052 158.176 121.28 151.417 137.558C144.603 153.814 151.121 175.015 166.48 216.288C166.597 216.544 166.427 216.874 166.157 216.985C165.849 217.112 165.517 216.987 165.362 216.747C144.184 177.864 132.309 158.863 115.188 152.436C98.0126 145.989 75.6636 152.172 32.1928 166.725C31.8845 166.852 31.5364 166.691 31.4196 166.435ZM88.4177 46.6488C101.795 83.1792 107.099 102.924 100.608 118.484C94.1171 134.043 76.0053 144.998 39.8987 162.952C78.3913 150.226 99.2062 145.195 115.609 151.352C132.028 157.546 143.576 174.727 162.503 208.978C149.087 172.464 143.783 152.718 150.257 137.122C156.787 121.547 174.86 110.608 211.022 92.6745C172.474 105.38 151.698 110.396 135.257 104.254C118.854 98.0967 107.306 80.9157 88.4177 46.6488Z" fill="#131DFF"/>
</g>
</g>
</g>
</g>
<defs>
<clipPath id="clip0_0_1">
<rect width="1440" height="8564" fill="white" transform="translate(0 -128.812)"/>
</clipPath>
</defs>
</svg>
